# xmcd CD database file
#
# Track frame offsets:
#	900
#	18916
#	33542
#	50118
#	65389
#	84440
#	105276
#	122197
#	138533
#	155214
#	167890
#
# Disc length: 2485 seconds
#
# Revision: 0
# Processed by: cddbd v1.5.2PL0 Copyright (c) Steve Scherf et al.
# Submitted via: cddb-tool 0.4.7
#
DISCID=9609a90b
DTITLE=Hanne Haller - Gefühlsroulette
DYEAR=1985
DGENRE=Pop
TTITLE0=Der Sandmann
TTITLE1=Du holst den Wind niemals ein
TTITLE2=Gern allein
TTITLE3=Du bist der Mann den ich mag
TTITLE4=Ich hab' dich unheimlich lieb
TTITLE5=Starke Männer sind wieder gefragt
TTITLE6=Wir müssen zum TÜV
TTITLE7=Abendwind
TTITLE8=Zeit für ein bisschen Zärtlichkeit
TTITLE9=Ich hab' diesen Mann geliebt
TTITLE10=Ich gehe heut' allein nach haus
EXTD=
EXTT0=
EXTT1=
EXTT2=
EXTT3=
EXTT4=
EXTT5=
EXTT6=
EXTT7=
EXTT8=
EXTT9=
EXTT10=
PLAYORDER=
